<svg width="44" height="44" viewBox="0 0 44 44" fill="none" xmlns="http://www.w3.org/2000/svg">
<path d="M7.33335 11H3.66669V36.6667C3.66669 38.6833 5.31669 40.3333 7.33335 40.3333H33V36.6667H7.33335V11Z" fill="#00163B"/>
<path d="M36.6667 3.66669H14.6667C12.65 3.66669 11 5.31669 11 7.33335V29.3334C11 31.35 12.65 33 14.6667 33H36.6667C38.6833 33 40.3333 31.35 40.3333 29.3334V7.33335C40.3333 5.31669 38.6833 3.66669 36.6667 3.66669ZM25.685 27.5C24.6033 27.5 23.76 26.6384 23.76 25.575C23.76 24.4934 24.6217 23.6684 25.685 23.6684C26.7667 23.6684 27.5917 24.4934 27.5917 25.575C27.5733 26.6384 26.7667 27.5 25.685 27.5V27.5ZM30.2683 16.1884C29.1133 17.8934 28.0133 18.4067 27.4083 19.5067C27.17 19.9467 27.0783 20.24 27.0783 21.67H24.2917C24.2917 20.9184 24.1817 19.69 24.7683 18.645C25.52 17.3067 26.9317 16.5184 27.7567 15.345C28.6367 14.0984 28.1417 11.7884 25.6667 11.7884C24.0533 11.7884 23.2467 13.0167 22.9167 14.0434L20.405 12.9984C21.1017 10.9267 22.9533 9.16669 25.6483 9.16669C27.9033 9.16669 29.4617 10.1934 30.25 11.4767C30.9283 12.595 31.3133 14.6484 30.2683 16.1884V16.1884Z" fill="#00163B"/>
</svg>
